<?xml version="1.0" encoding="UTF-8"?>
<svg id="Layer_1" xmlns="http://www.w3.org/2000/svg" version="1.1" viewBox="0 0 97 20">
  <!-- Generator: Adobe Illustrator 30.1.0, SVG Export Plug-In . SVG Version: 2.1.1 Build 136)  -->
  <defs>
    <style>
      .st0 {
        fill: #fff;
      }

      .st1 {
        fill: #bff747;
      }
    </style>
  </defs>
  <path class="st1" d="M.89,19.86L3.88.14h5.37l3,19.73h-3.72l-.55-4.23h-2.82l-.59,4.23H.89ZM7.6,12.85l-.86-6.34c-.1-.76-.14-1.78-.14-2.56h-.07c0,.79-.03,1.8-.14,2.56l-.86,6.34h2.07Z"/>
  <path class="st1" d="M13.63.14h3.99v8.48h2.41V.14h4.03v19.73h-4.03v-8.48h-2.41v8.48h-3.99V.14Z"/>
  <path class="st0" d="M26.3,19.86V.14h5.99l1.96,13.87c.1.79.14,1.8.14,2.59h.07c0-.79.03-1.8.17-2.59L36.53.14h5.99v19.73h-3.69V6.53c0-.79.07-1.8.14-2.59h-.07c-.07.76-.17,1.8-.28,2.56l-2.14,13.36h-4.13l-2.13-13.42c-.14-.79-.24-1.8-.31-2.59h-.07c.07.79.17,1.8.17,2.59v13.42h-3.72Z"/>
  <path class="st0" d="M44.76,19.86V.14h7.85v2.79h-3.86v5.69h3.51v2.76h-3.51v5.69h3.86v2.79h-7.85Z"/>
  <path class="st0" d="M54.65,19.86V.14h6.34c2.45,0,4.1,1.32,4.1,3.35v13.02c0,2-1.65,3.35-4.1,3.35h-6.34ZM58.64,2.93v14.15h1.72c.41,0,.69-.23.69-.56V3.49c0-.34-.28-.56-.69-.56h-1.72Z"/>
  <path class="st0" d="M73.8,3.35c0-2,1.65-3.33,4.1-3.33h2.24c2.45,0,4.1,1.32,4.1,3.33v3.64h-4.03v-3.38c0-.34-.28-.56-.69-.56h-1.03c-.41,0-.69.23-.69.56v12.79c0,.34.28.56.69.56h1.03c.41,0,.69-.23.69-.56v-3.24h4.03v3.5c0,2-1.65,3.33-4.1,3.33h-2.24c-2.45,0-4.1-1.32-4.1-3.33V3.35Z"/>
  <path class="st0" d="M88.85.14l1.62,13.58c.1.79.14,1.8.14,2.57h.07c0-.76.03-1.78.1-2.57l1.62-13.58h3.72l-2.82,19.73h-5.34L85.13.14h3.72Z"/>
</svg>