<?xml version="1.0" encoding="UTF-8"?>
<svg id="Layer_1" xmlns="http://www.w3.org/2000/svg" version="1.1" viewBox="0 0 481 100">
  <!-- Generator: Adobe Illustrator 30.1.0, SVG Export Plug-In . SVG Version: 2.1.1 Build 136)  -->
  <defs>
    <style>
      .st0 {
        fill: #fff;
      }

      .st1 {
        fill: #bff747;
      }
    </style>
  </defs>
  <g>
    <path class="st0" d="M203.98,92.09l14.35-53.44c.3-1.96-.3-3.35-1.81-4.18-1.51-.9-3.01-.72-4.52.57l-21.58,21.47c-.6.6-1.02,1.36-1.24,2.26l-9.83,36.72c-.68,1.81-1.88,2.71-3.62,2.71h-22.37c-1.66,0-2.98-.64-3.95-1.92-.98-1.28-1.24-2.67-.79-4.18l12.43-46.66c.68-2.56,1.96-4.75,3.84-6.55l16.95-16.95c2.86-2.94,6.37-4.41,10.51-4.41h27.23c4.9,0,8.82,1.96,11.75,5.88.3.38.6.79.9,1.24.68.83,1.43.91,2.26.23l2.94-2.94c2.94-2.94,6.44-4.41,10.51-4.41h27.68c3.17,0,6.03.94,8.59,2.82,2.48,1.73,4.25,3.99,5.31,6.78,1.06,2.94,1.17,5.95.34,9.04l-15.82,59.32c-.75,1.81-1.99,2.71-3.72,2.71h-22.26c-1.65,0-2.97-.64-3.95-1.92-.98-1.28-1.24-2.67-.79-4.18l14.24-53.44c.3-1.21-.04-2.3-1.02-3.28-.98-.91-2.07-1.28-3.28-1.13-1.21.23-2.07,1.24-2.59,3.05l-3.62,13.56c-.45,1.66-1.17,4.22-2.14,7.69,0,.07-.03.15-.11.22l-9.83,36.72c-.68,1.81-1.89,2.71-3.62,2.71h-22.6c-1.58,0-2.86-.64-3.84-1.92-.98-1.28-1.28-2.67-.9-4.18Z"/>
    <path class="st0" d="M328.15,39.21c-.83,3.01-2.07,7.53-3.73,13.56-.15.75-.3,1.32-.45,1.69.07.6.38.76.9.46,1.58-1.66,3.54-2.48,5.88-2.48h12.54c.68,0,1.24.26,1.7.79.45.61.56,1.24.34,1.92-.22.9-.6,2.3-1.13,4.18-.68,2.56-1.21,4.52-1.58,5.88-.3,1.06-.9,1.92-1.81,2.6-.83.68-1.81,1.02-2.94,1.02h-16.05c-1.13,0-1.81.53-2.03,1.58-.3.91-.68,2.26-1.13,4.07-.45,1.58-.79,2.79-1.02,3.62-.22.98,0,1.88.68,2.71.6.75,1.4,1.13,2.38,1.13h16.27c2.26-.23,3.73-1.43,4.41-3.62.15-.52.38-1.28.68-2.26.68-1.88,1.88-2.83,3.62-2.83h22.37c1.58,0,2.86.64,3.84,1.92.98,1.28,1.28,2.71.9,4.3-.45,1.66-1.13,4.1-2.03,7.35-.91,3.46-1.58,6.06-2.03,7.8-.91,2.41-2.52,3.61-4.86,3.61h-76.83c-1.58,0-2.87-.64-3.84-1.92-1.05-1.28-1.36-2.71-.91-4.29,1.81-6.78,4.52-16.91,8.14-30.4,3.99-14.69,6.96-25.69,8.92-32.99.83-3.31,2.56-5.99,5.2-8.02,2.64-2.03,5.65-3.05,9.04-3.05h48.02c4.07,0,7.53,1.47,10.4,4.41l6.66,6.66c3.92,4.07,5.2,8.81,3.85,14.24l-1.47,5.88c-.75,1.88-2,2.82-3.73,2.82h-25.99c-.68,0-1.24-.3-1.69-.9-.38-.52-.49-1.13-.34-1.81l.56-2.26c.53-1.88.11-3.5-1.24-4.86l-6.33-6.33c-1.66-1.58-3.62-2.41-5.88-2.49h-.11c-1.89,0-3.58.56-5.08,1.7-1.58,1.13-2.6,2.68-3.05,4.63Z"/>
    <path class="st0" d="M376.85,91.98c2.11-7.84,5.27-19.66,9.49-35.48,3.39-12.43,5.91-21.73,7.57-27.91.91-3.31,2.64-5.99,5.2-8.02,2.64-2.03,5.65-3.05,9.04-3.05h48.02c4.07,0,7.57,1.47,10.51,4.41l6.67,6.66c3.92,4.07,5.2,8.81,3.84,14.24l-7.45,27.57c-.68,2.49-1.92,4.67-3.73,6.56l-16.95,16.95c-2.94,2.86-6.44,4.29-10.51,4.29h-56.83c-1.66,0-2.98-.64-3.95-1.92-.98-1.28-1.28-2.71-.91-4.29ZM412.56,77.18c-.38,1.96.22,3.36,1.81,4.18,1.5.9,3.01.72,4.52-.56l21.47-21.47c.68-.68,1.13-1.43,1.36-2.26.3-1.21.75-2.97,1.36-5.31.68-2.33,1.17-4.07,1.47-5.2.45-1.88,0-3.5-1.36-4.86l-6.33-6.33c-2.49-2.26-5.2-2.97-8.14-2.15-2.94.75-4.93,2.75-5.99,5.99-2.86,10.7-6.25,23.35-10.17,37.96Z"/>
  </g>
  <g>
    <path class="st1" d="M64.92,63.84c.37-1.73-.08-3.24-1.36-4.52l-6.33-6.33c-2.49-2.26-5.2-3.01-8.14-2.26-3.01.83-5.01,2.82-5.99,5.99-.53,2.03-2.15,7.95-4.86,17.74-.3,1.13-.49,1.96-.56,2.48-4.22,15.67-3.8,13.97-4.63,17.05-.68,1.88-1.88,2.82-3.62,2.82H7.08c-1.65,0-2.97-.68-3.95-2.03-.98-1.28-1.24-2.67-.79-4.18,2.86-10.77,3.72-13.85,8.47-31.41,3.62-13.56,6.21-23.39,7.8-29.49.68-2.56,1.96-4.75,3.84-6.55L39.39,6.21c2.86-2.94,6.36-4.41,10.51-4.41h43.95c3.24,0,6.14.94,8.7,2.82,2.41,1.73,4.14,3.99,5.2,6.78,1.13,3.01,1.28,6.03.45,9.04-.9,3.54-2.11,8.06-3.62,13.56-.23.75-.53,1.85-.9,3.28-5.05,18.83-8.81,32.99-11.3,42.48-.76,1.88-2,2.82-3.73,2.82h-22.26c-1.66,0-2.98-.68-3.95-2.03-.98-1.28-1.28-2.67-.9-4.18l3.39-12.54ZM56.11,35.14h12.77c1.13,0,2.11-.34,2.94-1.02.9-.68,1.51-1.58,1.81-2.71l2.26-8.47c.3-1.96-.3-3.35-1.81-4.18-1.51-.9-3.01-.71-4.52.57l-14.12,14.12c-.3.3-.38.64-.23,1.02.15.45.45.68.9.68Z"/>
    <path class="st1" d="M115.24,74.97l-6.33-6.33c-2.49-2.26-5.2-3.01-8.14-2.26-2.94.76-4.93,2.71-5.99,5.88l-5.99,22.26c-.3,1.13-.87,2.03-1.7,2.71-.9.6-1.92.9-3.05.9h-21.47c-1.58,0-2.86-.64-3.84-1.92-.98-1.28-1.28-2.67-.9-4.18,1.51-5.65,3.91-15.26,6.92-26.48,5.5-20.64,9.5-34.95,12.29-45.27.68-1.88,1.88-2.82,3.62-2.82h22.37c1.65,0,2.97.64,3.95,1.92.98,1.36.94,3.75.49,5.26l-5.24,19.94c-.45,1.58-.19,3.01.79,4.29.98,1.28,2.3,1.92,3.95,1.92h14.8c1.51,0,2.56-.83,3.17-2.48l7.57-28.02c.67-1.88,1.88-2.82,3.61-2.82h18.08c2.71,0,4.86,1.09,6.44,3.28,1.66,2.11,2.14,4.48,1.47,7.12-.38,1.28-.72,2.56-1.02,3.84-1.06,3.99-2.67,9.98-4.86,17.96-5.42,20.34-9.49,35.59-12.2,45.76-.76,1.81-2,2.71-3.73,2.71h-22.26c-1.66,0-2.98-.64-3.95-1.92-.98-1.28-1.24-2.71-.79-4.29.23-.98.6-2.48,1.13-4.52.98-3.46,1.7-6.06,2.15-7.8.45-1.81,0-3.35-1.36-4.63Z"/>
  </g>
</svg>